<svg height="512pt" viewBox="0 -76 512.00056 512" width="512pt" xmlns="http://www.w3.org/2000/svg"><path d="m278.183594 89.261719c8.992187 18.570312 37.171875 5.109375 28.101562-13.609375l-32.339844-66.796875c-8.992187-18.5625-37.113281-4.988281-28.105468 13.609375zm0 0"/><path d="m322.699219 89.28125c9.078125 18.527344 37.191406 4.933594 28.039062-13.742188l-19.300781-39.375c-9.074219-18.519531-37.128906-4.804687-28.035156 13.742188zm0 0"/><path d="m444.234375 194.277344c-20.628906 0-20.652344 31.222656 0 31.222656 46.234375 0 49.332031 64.046875 6.871094 70.570312-6.621094-18.699218-24.480469-32.132812-45.417969-32.132812-20.625 0-20.65625 31.226562 0 31.226562 9.335938 0 16.933594 7.585938 16.933594 16.933594 0 9.335938-7.597656 16.933594-16.933594 16.933594h-35.417969l-36.160156-73.660156c42.492187 6.246094 80.5625-26.875 80.5625-69.621094 0-72.03125-96.183594-97.304688-131.667969-34.492188-25.058594-51.03125-12.332031-25.113281-59.441406-121.082031-14.429688-29.441406-56.496094-29.457031-70.953125 0-3.644531 7.417969-148.328125 302.15625-150.996094 307.589844-5.085937 10.371094 2.480469 22.492187 14.019531 22.492187h390.054688c21.183594 0 39.210938-13.75 45.640625-32.785156.003906-.007812.003906-.015625.007813-.023437 83.742187-7.046875 80.234374-133.171875-7.101563-133.171875zm-99.925781-47.664063c21.589844 0 39.136718 17.5625 39.136718 39.136719 0 21.589844-17.546874 39.136719-39.136718 39.136719-21.574219 0-39.132813-17.546875-39.132813-39.136719 0-21.574219 17.558594-39.136719 39.132813-39.136719zm-207.65625-13.070312h102.867187l95.964844 195.488281h-294.796875zm58.878906-89.605469 28.65625 58.378906h-72.203125l28.652344-58.378906c3.035156-6.210938 11.851562-6.195312 14.894531 0zm0 0"/><path d="m203.691406 235.679688v-71.296876c0-20.632812-31.222656-20.65625-31.222656 0v71.296876c0 20.621093 31.222656 20.671874 31.222656 0zm0 0"/><path d="m203.691406 294.488281v-13.207031c0-20.632812-31.222656-20.65625-31.222656 0v13.207031c0 20.621094 31.222656 20.671875 31.222656 0zm0 0"/></svg>