<svg id="edsuuup9zhv81" xmlns="http://www.w3.org/2000/svg" xmlns:xlink="http://www.w3.org/1999/xlink" viewBox="0 0 1200 1000" shape-rendering="geometricPrecision" text-rendering="geometricPrecision"><path id="edsuuup9zhv82" d="M381.460000,163.460000C432.310000,163.370000,484.050000,163.450000,535,163.420000C538.300000,164.680000,542.030000,164.310000,545.560000,164.460000C547.070000,165.890000,549.630000,165.250000,551.550000,165.460000C553.890000,167.030000,557.510000,166.820000,560,168.200000C561.620000,168.650000,562.490000,167.850000,563.440000,169.540000C566.990000,170.260000,571.360000,171.530000,574,173.700000C580.750000,176.880000,587.980000,181.320000,593.420000,186.580000C597.460000,189.610000,600.090000,193.990000,603.540000,197.460000C605.560000,202.180000,607.730000,203.490000,609.460000,208.570000C611.110000,210.730000,610.920000,213.270000,612.540000,215.430000C612.620000,217.580000,613.660000,219.340000,613.460000,221.560000C615.450000,224.630000,613.390000,228.220000,615.210000,231C615.120000,234.540000,615.890000,238.930000,614.420000,242C614.790000,245.990000,613.690000,249.630000,613.540000,253.550000C612.140000,254.950000,613.020000,256.460000,611.780000,258C611.090000,260.090000,609.870000,262.460000,609.540000,264.550000C608,265.430000,608.420000,266.430000,607.720000,267.840000C602.770000,277.030000,596.340000,285.290000,587.850000,291.810000C586.840000,292.160000,586.090000,292.750000,585.580000,293.580000C584.240000,294.610000,582.450000,295.120000,581.540000,296.540000C580.140000,296.980000,579.340000,297.270000,578.540000,298.540000C576.150000,299.630000,575.090000,299.730000,572.460000,300.460000C572.120000,301.430000,573.050000,302.640000,574,302.580000C575.980000,302.690000,578.870000,302.150000,580.450000,303.540000C584.390000,303.520000,589.910000,305.720000,593.550000,306.460000C595.220000,307.980000,598.340000,307.740000,599.450000,309.540000C603.480000,310.290000,607.260000,313.210000,611.100000,314.750000C615.900000,316.690000,618.060000,319.840000,622.540000,321.460000C627.450000,325.930000,632.830000,329.680000,637.380000,334.620000C639.220000,336.080000,640.450000,338.420000,642.540000,339.460000C643.360000,341.900000,646.220000,343.660000,647.240000,345.790000C649.760000,349.060000,651.440000,351.900000,653.700000,355C656.390000,360.690000,659.750000,364.210000,661.460000,370.550000C663.300000,371.510000,662.150000,372.990000,663.540000,374.440000C663.980000,376.920000,665.300000,378.880000,665.460000,381.560000C667.020000,383.790000,667.450000,387.430000,668.210000,389.950000C669.050000,391.100000,668.030000,392.310000,669.540000,393.450000C669.800000,395.870000,669,399.430000,670.540000,401.440000C670.500000,408.100000,671.250000,414.390000,670.810000,421C670.710000,424.860000,670.530000,428.690000,670.540000,432.560000C668.950000,434.510000,669.840000,438.150000,669.540000,440.550000C667.970000,442,669.120000,443.750000,667.460000,445.450000C667.780000,447.780000,666.210000,448.900000,666.400000,451C665.880000,453.630000,664.930000,456.510000,663.760000,458.940000C662.490000,462.500000,661.760000,465.670000,659.750000,468.930000C658.500000,471.310000,657.480000,474.720000,655.460000,476.460000C655.050000,478.740000,653.330000,480.190000,652.280000,482C645.830000,492.570000,638.240000,499.070000,629,506.770000C624.910000,509.360000,621.090000,512.070000,617,514.690000C615.550000,515.260000,614.410000,515.070000,613.560000,516.540000C609.520000,518.210000,605.480000,519.910000,601.450000,521.460000C600.010000,522.790000,598.510000,521.700000,597.560000,523.540000C594.380000,523.630000,591.360000,525.380000,588.450000,525.460000C587.220000,526.590000,585.960000,526.390000,584.440000,526.460000C583.010000,527.950000,581.350000,526.930000,579.950000,527.770000C576.250000,528.650000,573.840000,529.200000,570,529.630000C567.860000,531.300000,565.670000,530.320000,563,530.570000C555.460000,531.150000,548.410000,531.030000,541,531.580000C468.990000,531.620000,397.010000,531.570000,325,531.580000C316.060000,529.930000,307.630000,526.580000,302.540000,518.460000C300.190000,517.080000,300.450000,513.870000,298.460000,512.550000C298.450000,511.380000,298.120000,510.380000,297.460000,509.560000C296.410000,504.720000,296.460000,499.910000,296.680000,495C297.180000,492.850000,297,490.840000,298.240000,489C298.470000,485.820000,301.380000,483.370000,302.460000,480.460000C307.070000,476.020000,310.870000,472.180000,316.950000,469.920000C318.030000,468.810000,320.160000,469.880000,321.450000,468.460000C325.950000,468.130000,330.060000,468.140000,334.550000,468.460000C335.860000,469.920000,337.990000,468.780000,339.050000,469.950000C345.270000,472.140000,351.140000,477.570000,355.050000,483C359.500000,489.180000,362.810000,495.890000,367.060000,502C370.530000,507.920000,377.440000,513.690000,383,517.660000C386.130000,519.060000,389.340000,521.160000,392.550000,522.460000C393.510000,524.260000,394.990000,523.230000,396.440000,524.540000C400.070000,525.460000,404.300000,527.670000,407.550000,528.460000C409.100000,529.750000,410.680000,529.130000,410.420000,527C410.440000,479.760000,410.370000,431.580000,410.460000,384.450000C412.800000,383.510000,413.530000,385.500000,415.940000,386.180000C421.820000,388.450000,424.470000,391.130000,430.540000,392.460000C431.470000,393.700000,432.910000,394.020000,433.950000,395.080000C436.090000,396.730000,440.900000,397.220000,442.460000,399.540000C445.250000,399.650000,447.740000,402.350000,450.540000,402.460000C451.830000,403.900000,453.830000,404.760000,455.600000,405.450000C457.210000,406.810000,459.470000,406.780000,459.880000,409C459.850000,448.510000,459.960000,488.550000,459.830000,528L460.140000,528.960000C462.590000,529.920000,466.320000,529.310000,469,529.210000C471.580000,527.510000,474.610000,529.250000,477.450000,527.460000C478.770000,527.580000,479.770000,527.240000,480.450000,526.460000C484.880000,526.880000,488.250000,524.900000,492.560000,524.540000C493.880000,523.310000,495.830000,524.050000,497.060000,523.170000C504.690000,520.690000,512.820000,518.170000,520,514.270000C525.600000,512.860000,529.250000,509.170000,534.540000,507.540000C534.950000,506.870000,535.430000,506.450000,536,506.280000C539.590000,504.640000,544.690000,500.620000,548.450000,498.460000C557.990000,492.190000,566.150000,484.330000,573.730000,475.790000C576.120000,473.140000,577.960000,470.010000,580.540000,467.540000C581.160000,465.900000,582.110000,463.590000,583.540000,462.550000C585.140000,458.220000,588.720000,453.920000,589.460000,449.450000C591.160000,448.490000,590.740000,446.660000,591.740000,445C593.010000,443.460000,592.170000,441.960000,593.540000,440.550000C593.820000,436.380000,595.760000,432.800000,595.460000,428.430000C596.430000,427.180000,596.400000,425.510000,596.420000,424C596.400000,415.010000,596.490000,405.990000,596.380000,397C596.530000,395.020000,595.150000,393.860000,595.420000,392C595.620000,388.490000,593.670000,384.310000,593.420000,381C591.420000,374.790000,590.610000,368.840000,587.240000,362.910000C586.380000,361.480000,587.100000,360.470000,585.460000,359.560000C583.460000,354.420000,581.220000,351.850000,578.420000,347.600000C576.250000,343.640000,572.510000,340.600000,569.810000,337C569.010000,335.280000,567.500000,335.240000,566.210000,333.750000C556.950000,325.080000,547.900000,319.660000,536.430000,314.550000C532.490000,312.130000,529.100000,311.770000,525.050000,309.880000C524.030000,308.860000,522.670000,310.040000,521.540000,308.460000C515.950000,308.080000,510.120000,305.200000,504,305.580000C501.510000,306,500.370000,303.570000,501.460000,301.460000C504.090000,301.530000,507.380000,301.120000,509.450000,299.460000C511.020000,299.310000,512.240000,299.800000,513.450000,298.460000C514.940000,298.390000,516.230000,298.490000,517.450000,297.460000C526.500000,295.680000,535.230000,290.470000,543.540000,286.540000C544.950000,284.890000,547.550000,283.420000,549.540000,282.540000C550.670000,280.780000,552.590000,280.160000,554.040000,279.040000C556.530000,275.850000,560.660000,273.090000,562.460000,269.460000C564.390000,268.270000,564.760000,265.720000,566.540000,264.540000C566.740000,262.750000,568.100000,261.750000,568.330000,260C570.150000,257.670000,571.070000,253.580000,571.460000,250.430000C573.100000,248,571.480000,245.570000,573.540000,243.550000C573.600000,239.190000,573.600000,234.810000,573.540000,230.450000C572.150000,229.030000,572.740000,226.270000,572.540000,224.440000C571.900000,223.620000,571.560000,222.620000,571.540000,221.440000C569.610000,218.800000,570.380000,215.480000,568.680000,213C567.660000,210.360000,565.990000,207.760000,564.750000,205.160000C563.590000,203.920000,564.100000,202.440000,562.450000,201.570000C558.410000,195.410000,553.160000,189.970000,547.160000,185.700000C545.620000,184.780000,544.870000,183.250000,543,182.880000C540.220000,181.680000,539.630000,179.880000,536.460000,179.540000C535.700000,178.100000,534.590000,178.500000,533.540000,177.460000C529.960000,176.600000,527.450000,174.650000,523.440000,174.540000C521.370000,173.180000,518.450000,172.360000,516,172.280000C514.130000,170.820000,512.190000,171.730000,510,171.150000C508.440000,171.190000,507.590000,170.110000,506,170.420000C491.390000,169.370000,476.650000,170.100000,462,169.840000C460.910000,170.020000,460.430000,170.730000,460.580000,172C460.580000,221.670000,460.580000,271.330000,460.580000,321C460.370000,322.720000,461.750000,323.140000,463,323.780000C466.480000,325.580000,470.600000,327.500000,474,329.220000C478.230000,331.250000,481.750000,334.120000,485.540000,335.460000C487.420000,338.040000,490.730000,337.620000,492.460000,340.540000C495.180000,341.060000,494.440000,328.720000,497.060000,329.220000C505.670000,335.880000,513.750000,356.600000,520.810000,365.130000C521.350000,366.650000,522.320000,367.470000,523.550000,368.450000C525.200000,371.140000,526.660000,372.530000,528.120000,375C530.470000,379.980000,533.180000,381.970000,534.460000,387.540000C536.430000,388.620000,535.810000,392.350000,536.830000,394.060000C537.380000,395.240000,537.730000,396.380000,538.540000,397.450000C538.620000,398.960000,538.410000,400.220000,539.540000,401.440000C539.690000,403.620000,539.360000,406.530000,540.540000,408.440000C540.630000,414.130000,540.620000,419.870000,540.540000,425.560000C539.210000,427.720000,539.740000,431.090000,539.540000,433.560000C537.770000,435.270000,539.380000,437.150000,537.750000,438.940000C536.920000,441.190000,536.780000,444.430000,535.460000,446.440000C535.450000,450.210000,532.600000,453.740000,532.540000,457.540000C529.370000,460.680000,528.620000,466.480000,525.460000,469.460000C524.470000,472.850000,521.850000,474.650000,520.380000,477.370000C516.940000,481.860000,512.490000,486.600000,508.030000,490C505.790000,492.220000,501.610000,494.270000,499.540000,496.540000C498.020000,496.780000,495.300000,498.150000,494.540000,499.540000C493.830000,499.600000,493.130000,499.600000,492.440000,499.550000C492.270000,498.760000,492.450000,498.280000,493,498.130000C497.860000,494.170000,502.180000,489.510000,505.250000,484C506.300000,481.350000,508.260000,479.200000,508.460000,476.440000C510.050000,474.440000,508.730000,472.540000,510.540000,470.570000C510.820000,466.440000,510.810000,462.560000,510.540000,458.430000C509.680000,457.030000,509.670000,455.040000,509.540000,453.440000C508.890000,452.620000,508.550000,451.620000,508.540000,450.440000C507.450000,448.830000,506.970000,447.330000,506.540000,445.450000C504.660000,443.970000,504.640000,440.290000,502.460000,438.550000C501.150000,434.740000,497.810000,431.460000,495.770000,428C493.880000,425.530000,491.150000,423.190000,489.540000,420.460000C486.070000,417.880000,482.660000,413.280000,479.230000,410.750000C473.360000,405.650000,467.760000,400.740000,460.910000,397.240000C455.450000,393.520000,447.290000,390.040000,441,386.790000C439.870000,386.790000,439.050000,386.350000,438.560000,385.460000C431.990000,383.220000,429.130000,380.630000,422.450000,378.540000C418.970000,375.590000,413.750000,373.670000,409.460000,372.540000C407.080000,370.190000,403.370000,369.210000,400.550000,367.460000C398.980000,366.650000,397.480000,367.110000,396.560000,365.460000C394.070000,364.530000,391.050000,362.950000,388.460000,362.540000C387.300000,361.220000,384.190000,359.520000,382.460000,359.540000C379.240000,356.440000,373.670000,355.480000,370.540000,352.460000C369.470000,352.450000,368.500000,352.100000,367.640000,351.410000C362.410000,349.300000,352.670000,342.450000,347.460000,340.540000C345.560000,338.560000,342.280000,337.670000,340.550000,335.460000C334.490000,332.450000,328.510000,326.740000,323,322.710000C321.380000,322.260000,321.190000,320.320000,319.650000,319.370000C313.410000,313.180000,307.410000,306.010000,303.770000,298C303.040000,296.200000,301.460000,294.420000,301.540000,292.450000C299.160000,291.220000,300.820000,287.730000,298.460000,286.550000C298.570000,283.270000,297.480000,280.410000,297.050000,277C296.250000,270.730000,296.650000,264.310000,296.650000,258C296.790000,252.430000,298.360000,249.040000,298.860000,244C300.350000,240.550000,300.910000,235.210000,302.740000,231.940000C305.220000,227.310000,307.170000,222.390000,309.920000,217.960000C314.900000,210.540000,320.270000,203.960000,326.950000,197.860000C327.310000,197.450000,327.840000,197.320000,328.540000,197.460000C328.600000,198.160000,328.600000,198.860000,328.540000,199.540000L327.370000,200.240000C326.580000,202.720000,325.170000,205.410000,325.350000,208C325.300000,209.630000,324.070000,210.310000,324.420000,212C323.990000,217.920000,324.220000,223.640000,324.460000,229.560000C325.780000,231.690000,325.390000,234.700000,326.740000,237.060000C327.610000,238.930000,327.900000,242.320000,329.540000,243.450000C330.730000,247.730000,332.460000,249.520000,334.800000,253C341.410000,263.460000,351.220000,271.480000,361,278.740000C365.900000,282.170000,370.850000,284.950000,376,287.970000C377.110000,288.160000,377.930000,288.690000,378.450000,289.540000C380.250000,290.140000,382.170000,291.120000,383.460000,292.540000C385.390000,292.530000,386.760000,293.930000,388.660000,294.400000C390.040000,295.690000,391.530000,294.790000,392.450000,296.540000C397.300000,297.860000,401.970000,300.140000,406.430000,302.540000C408.030000,302.630000,409.650000,304.370000,410.420000,302C410.420000,268,410.420000,234,410.420000,200C410.560000,190.180000,404.670000,180.820000,396.980000,175C395.880000,173.970000,393.900000,173.110000,392.450000,172.540000C391.950000,171.650000,391.130000,171.200000,390,171.200000C387.620000,169.810000,384.500000,169.530000,381.460000,168.540000C381.220000,166.880000,381.310000,165.110000,381.460000,163.460000Z" transform="matrix(0.10000000000000 0 0 0.10000000000000 550.71128077700052 291.10026311900003)" fill="rgb(242,246,248)" stroke="none" stroke-width="1"/><g id="edsuuup9zhv83" transform="matrix(3 0 0 3 -219.00137328000199 -7.46047051000005)"><path id="edsuuup9zhv84" d="M183.120000,190.080000C184.100000,190.010000,185.080000,189.960000,186.070000,189.930000C184.020000,192.050000,182.320000,196.640000,178.910000,196.130000C180.250000,194.080000,181.530000,191.940000,183.120000,190.080000Z" fill="none" stroke="rgb(227,39,224)" stroke-width="1" stroke-dashoffset="20.280000" stroke-dasharray="20.280000"/><path id="edsuuup9zhv85" d="M209.326123,191C210.326123,190.990000,211.326123,190.990000,212.326123,191C212.326123,194.240000,212.346123,197.480000,212.306123,200.720000C213.846123,199.320000,215.056123,197.960000,217.306123,197.970000C220.146123,197.750000,222.456123,199.340000,223.096123,202.130000C223.626123,206.020000,223.206123,210.070000,223.326123,214C222.326123,214.010000,221.326123,214.010000,220.326123,214C220.226123,210.430000,220.566123,206.740000,220.076123,203.200000C218.766123,199.670000,213.256123,200.710000,212.486123,204.100000C212.176123,207.370000,212.386123,210.710000,212.326123,214C211.326123,214.010000,210.326123,214.010000,209.326123,214C209.326123,206.330000,209.326123,198.670000,209.326123,191Z" transform="matrix(1 0 0 1 2.74962193000007 1.50749999999778)" fill="none" stroke="rgb(227,39,224)" stroke-width="1" stroke-dashoffset="98" stroke-dasharray="98"/><path id="edsuuup9zhv86" d="M352,190.485412C353,190.475412,354,190.475412,355,190.485412C355.010000,191.485412,355.010000,192.485412,355,193.485412C354,193.495412,353,193.495412,352,193.485412C351.990000,192.485412,351.990000,191.485412,352,190.485412Z" fill="none" stroke="rgb(227,39,224)" stroke-width="1" stroke-linecap="round" stroke-dashoffset="12" stroke-dasharray="12"/><path id="edsuuup9zhv87" d="M157.010000,192.930000C157.010000,193.960000,157.010000,195,157,196.030000C154.130000,195.360000,150.330000,194.250000,147.590000,195.760000C145.920000,196.570000,145.380000,198.870000,146.940000,200.050000C149.530000,201.550000,153.340000,201.220000,155.880000,203.100000C159.070000,205.420000,158.760000,211.340000,155.040000,213C151.420000,214.790000,146.750000,213.960000,142.990000,213.060000C142.990000,212.030000,142.990000,211,143,209.970000C146.190000,210.660000,150.960000,211.940000,153.850000,209.920000C155.530000,208.700000,155.240000,206.470000,153.630000,205.340000C150.860000,204.110000,147.060000,204.180000,144.680000,202.300000C141.840000,199.860000,142.580000,194.560000,146.020000,192.980000C149.310000,191.210000,153.570000,192.070000,157.010000,192.930000Z" fill="none" stroke="rgb(227,39,224)" stroke-width="1" stroke-dashoffset="103" stroke-dasharray="103"/><path id="edsuuup9zhv88" d="M296,192C299.570000,192.120000,303.330000,191.660000,306.840000,192.310000C310,193.150000,311.540000,195.640000,310.920000,198.870000C310.550000,200.950000,309.070000,201.430000,307.560000,202.550000C312.650000,203.490000,313.600000,209.840000,309.650000,212.660000C305.950000,214.960000,300.230000,213.680000,296,214C296,206.670000,296,199.330000,296,192Z" fill="none" stroke="rgb(227,39,224)" stroke-width="1" stroke-dashoffset="74" stroke-dasharray="74"/><path id="edsuuup9zhv89" d="M163.234292,193C164.234292,192.990000,165.234292,192.990000,166.234292,193C166.244292,194.660000,166.224292,196.330000,166.244292,198C168.234292,198,170.234292,198,172.234292,198C172.244292,199,172.244292,200,172.234292,201C170.234292,201,168.244292,201,166.244292,201C166.284292,203.930000,166.094292,206.910000,166.404292,209.820000C167.164292,211.600000,170.664292,210.770000,172.234292,211.020000C172.244292,212.020000,172.244292,213.020000,172.234292,214.020000C169.684292,213.900000,164.744292,214.710000,163.684292,211.560000C162.764292,208.270000,163.404292,204.420000,163.234292,201.010000L161.234292,201C161.224292,200,161.224292,199,161.234292,198L163.234292,197.990000C163.244292,196.330000,163.224292,194.660000,163.234292,193Z" fill="none" stroke="rgb(227,39,224)" stroke-width="1" stroke-dashoffset="73.150000" stroke-dasharray="73.150000"/><path id="edsuuup9zhv810" d="M298.485413,195C300.875413,195.130000,303.785413,194.650000,306.005413,195.600000C307.985413,196.590000,307.985413,199.420000,306.005413,200.420000C303.785413,201.350000,300.875413,200.870000,298.485413,201C298.485413,199,298.485413,197,298.485413,195Z" fill="none" stroke="rgb(227,39,224)" stroke-width="1" stroke-dashoffset="27" stroke-dasharray="27"/><path id="edsuuup9zhv811" d="M188,201.070000C189.210000,202.970000,188.940000,204.850000,189.070000,207C184.980000,207.010000,180.880000,206.960000,176.790000,207.060000C177.540000,208.450000,177.880000,209.810000,179.490000,210.440000C182.640000,211.740000,185.270000,210.600000,188.020000,209.050000C188.030000,210.070000,188.040000,211.080000,188.050000,212.100000C184.720000,214.220000,180.830000,214.870000,177.300000,212.780000C173.750000,210.630000,173.170000,205.520000,174.830000,202.020000C176.990000,197.140000,185.260000,196.390000,188,201.070000Z" fill="none" stroke="rgb(227,39,224)" stroke-width="1" stroke-dashoffset="74.100000" stroke-dasharray="74.100000"/><path id="edsuuup9zhv812" d="M193,198.964967C194.010000,198.954967,195.010000,198.954967,196.020000,198.964967L195.970000,201.614967C198,199.484967,199.850000,198.434967,202.900000,199.084967C209.830000,200.924967,209.800000,213.084967,202.840000,214.854967C199.780000,215.464967,197.970000,214.474967,195.980000,212.244967C196.020000,215.154967,196.010000,218.064967,196,220.964967C195,220.974967,194,220.974967,193,220.964967C193,213.634967,193,206.294967,193,198.964967Z" fill="none" stroke="rgb(227,39,224)" stroke-width="1" stroke-linecap="round" stroke-dashoffset="76" stroke-dasharray="76"/><path id="edsuuup9zhv813" d="M242.670000,200.380000C245.050000,204,243.630000,209.800000,244,214C242.990000,214.010000,241.990000,214.010000,240.980000,214L241.030000,211.310000C238.720000,214.040000,235.050000,215.010000,231.900000,213.070000C229.170000,211.240000,229.310000,206.780000,232.130000,205.090000C234.690000,203.560000,238.340000,204.090000,241.240000,203.940000C239.770000,199.670000,234.250000,201.060000,230.990000,201.990000C230.980000,200.960000,230.980000,199.940000,230.990000,198.920000C234.670000,197.890000,239.950000,196.900000,242.670000,200.380000Z" fill="none" stroke="rgb(227,39,224)" stroke-width="1" stroke-linecap="round" stroke-dashoffset="76" stroke-dasharray="76"/><path id="edsuuup9zhv814" d="M249.514588,198C250.514588,197.990000,251.524588,197.990000,252.534588,198L252.484588,200.720000C254.024588,199.320000,255.254588,197.960000,257.504588,197.960000C260.334588,197.750000,262.654588,199.350000,263.284588,202.130000C263.814588,206.020000,263.384588,210.070000,263.514588,214C262.514588,214.010000,261.514588,214.010000,260.514588,214C260.414588,210.430000,260.754588,206.740000,260.264588,203.200000C258.964588,199.670000,253.444588,200.710000,252.674588,204.100000C252.364588,207.370000,252.574588,210.710000,252.514588,214C251.514588,214.010000,250.514588,214.010000,249.514588,214C249.514588,208.670000,249.514588,203.330000,249.514588,198Z" fill="none" stroke="rgb(227,39,224)" stroke-width="1" stroke-dashoffset="84" stroke-dasharray="84"/><path id="edsuuup9zhv815" d="M281,201.070000C282.210000,202.970000,281.940000,204.850000,282.070000,207C277.980000,207.010000,273.880000,206.960000,269.790000,207.070000C270.540000,208.480000,270.900000,209.840000,272.550000,210.460000C275.680000,211.730000,278.290000,210.580000,281.020000,209.050000C281.030000,210.070000,281.040000,211.080000,281.050000,212.100000C277.720000,214.220000,273.830000,214.870000,270.300000,212.780000C266.750000,210.630000,266.170000,205.520000,267.830000,202.020000C269.990000,197.140000,278.260000,196.390000,281,201.070000Z" fill="none" stroke="rgb(227,39,224)" stroke-width="1" stroke-dashoffset="74" stroke-dasharray="74"/><path id="edsuuup9zhv816" d="M317,198C318,197.990000,319,197.990000,320,198C320.100000,201.580000,319.770000,205.270000,320.250000,208.810000C321.530000,212.350000,327.070000,211.280000,327.840000,207.900000C328.150000,204.630000,327.940000,201.290000,328,198C329,197.990000,330,197.990000,331,198C331,203.330000,331,208.670000,331,214C330,214.010000,329,214.010000,328,214C327.990000,213.080000,327.980000,212.160000,327.970000,211.240000C326.490000,212.700000,325.280000,214.060000,323,214.040000C320.180000,214.240000,317.860000,212.660000,317.230000,209.870000C316.700000,205.980000,317.120000,201.930000,317,198Z" fill="none" stroke="rgb(227,39,224)" stroke-width="1" stroke-dashoffset="84" stroke-dasharray="84"/><path id="edsuuup9zhv817" d="M346.030000,199C345.960000,200.020000,345.880000,201.030000,345.800000,202.050000C343.220000,201,340.460000,200.290000,338.050000,202.130000C338.050000,203.170000,338.410000,203.730000,339.130000,203.790000C341.130000,204.470000,343.390000,204.740000,345.250000,205.730000C347.830000,207.390000,347.620000,211.520000,344.940000,213C341.530000,214.910000,338.100000,214.030000,334.960000,212.090000C334.960000,211.070000,334.970000,210.060000,334.980000,209.040000C337.600000,210.510000,341.200000,212.280000,343.730000,209.690000C345.050000,206.780000,340.720000,206.690000,339.010000,206.040000C336.230000,205.500000,334.510000,204.170000,335.020000,201.100000C336.390000,197.070000,342.980000,197.500000,346.030000,199Z" fill="none" stroke="rgb(227,39,224)" stroke-width="1" stroke-linecap="round" stroke-dashoffset="78.400000" stroke-dasharray="78.400000"/><path id="edsuuup9zhv818" d="M352,198C353,197.990000,354,197.990000,355,198C355,203.330000,355,208.670000,355,214C354,214.010000,353,214.010000,352,214C352,208.670000,352,203.330000,352,198Z" fill="none" stroke="rgb(227,39,224)" stroke-width="1" stroke-linecap="round" stroke-dashoffset="38" stroke-dasharray="38"/><path id="edsuuup9zhv819" d="M373,201.070000C374.210000,202.970000,373.940000,204.850000,374.070000,207C369.980000,207.010000,365.880000,206.960000,361.790000,207.060000C362.540000,208.450000,362.880000,209.810000,364.490000,210.440000C367.640000,211.740000,370.270000,210.600000,373.020000,209.050000C373.030000,210.070000,373.040000,211.080000,373.050000,212.100000C369.720000,214.220000,365.830000,214.870000,362.300000,212.780000C358.750000,210.630000,358.170000,205.520000,359.830000,202.020000C361.990000,197.140000,370.260000,196.390000,373,201.070000Z" fill="none" stroke="rgb(227,39,224)" stroke-width="1" stroke-dashoffset="74" stroke-dasharray="74"/><path id="edsuuup9zhv820" d="M402,201.070000C403.210000,202.970000,402.940000,204.850000,403.070000,207C398.980000,207.010000,394.880000,206.960000,390.790000,207.070000C391.540000,208.450000,391.880000,209.810000,393.490000,210.440000C396.640000,211.740000,399.270000,210.600000,402.020000,209.050000C402.030000,210.070000,402.040000,211.080000,402.050000,212.100000C398.720000,214.220000,394.830000,214.870000,391.300000,212.780000C387.750000,210.630000,387.170000,205.520000,388.830000,202.020000C390.990000,197.140000,399.260000,196.390000,402,201.070000Z" fill="none" stroke="rgb(227,39,224)" stroke-width="1" stroke-linecap="round" stroke-dashoffset="74.300000" stroke-dasharray="74.300000"/><path id="edsuuup9zhv821" d="M378,198C379.010000,197.990000,380.010000,197.990000,381.020000,198L380.970000,200.670000C383.270000,198.250000,384.700000,197.960000,388,197.900000C388.010000,198.910000,388.010000,199.920000,388,200.940000C385.380000,201.140000,382.880000,200.700000,381.500000,203.470000C380.540000,206.720000,381.200000,210.610000,381,214C380,214.010000,379,214.010000,378,214C378,208.670000,378,203.330000,378,198Z" fill="none" stroke="rgb(227,39,224)" stroke-width="1" stroke-linecap="round" stroke-dashoffset="53.600000" stroke-dasharray="53.600000"/><path id="edsuuup9zhv822" d="M185.771417,203.930000C182.631417,204.030000,179.481417,204.030000,176.331417,203.890000C178.321417,200.270000,184.111417,199.760000,185.771417,203.930000Z" fill="none" stroke="rgb(227,39,224)" stroke-width="1" stroke-linecap="round" stroke-dashoffset="22" stroke-dasharray="22"/><path id="edsuuup9zhv823" d="M198.075794,201.554525C200.975794,200.204525,204.125794,201.894525,204.535794,205.074525C205.055794,208.284525,203.135794,211.394525,199.625794,211.064525C194.975794,210.704525,194.225794,203.514525,198.075794,201.554525Z" transform="matrix(1 0 0 1 0.42683722499953 0.91252592999979)" fill="none" stroke="rgb(227,39,224)" stroke-width="1" stroke-linecap="round" stroke-dashoffset="30.180000" stroke-dasharray="30.180000"/><path id="edsuuup9zhv824" d="M279.754588,203.930000C276.614588,204.030000,273.464588,204.030000,270.314588,203.890000C272.304588,200.270000,278.094588,199.760000,279.754588,203.930000Z" fill="none" stroke="rgb(227,39,224)" stroke-width="1" stroke-dashoffset="21" stroke-dasharray="21"/><path id="edsuuup9zhv825" d="M371.240000,203.930000C368.100000,204.030000,364.950000,204.030000,361.800000,203.890000C363.780000,200.270000,369.580000,199.760000,371.240000,203.930000Z" fill="none" stroke="rgb(227,39,224)" stroke-width="1" stroke-dashoffset="21" stroke-dasharray="21"/><path id="edsuuup9zhv826" d="M400.240000,203.930000C397.100000,204.030000,393.950000,204.030000,390.800000,203.890000C392.790000,200.270000,398.580000,199.760000,400.240000,203.930000Z" fill="none" stroke="rgb(227,39,224)" stroke-width="1" stroke-linecap="round" stroke-dashoffset="21.200000" stroke-dasharray="21.200000"/><path id="edsuuup9zhv827" d="M299,204.420739C301.620000,204.560739,304.790000,204.030739,307.230000,205.060739C309.600000,206.140739,309.580000,209.700739,307.230000,210.780739C304.790000,211.820739,301.620000,211.270739,299,211.420739C299,209.090739,299,206.750739,299,204.420739Z" fill="none" stroke="rgb(227,39,224)" stroke-width="1" stroke-linecap="round" stroke-dashoffset="31" stroke-dasharray="31"/><path id="edsuuup9zhv828" d="M241.210000,207C240.590000,209.500000,239.590000,210.580000,236.990000,210.940000C235.370000,211.190000,232.320000,210.490000,233.170000,208.220000C235.140000,206.520000,238.780000,207.150000,241.210000,207Z" fill="none" stroke="rgb(227,39,224)" stroke-width="1" stroke-dashoffset="20.270000" stroke-dasharray="20.270000"/></g><script><![CDATA[!function(t,n){"object"==typeof exports&&"undefined"!=typeof module?module.exports=n():"function"==typeof define&&define.amd?define(n):(t=t||self).__SVGATOR_PLAYER__=n()}(this,(function(){"use strict";function t(n){return(t="function"==typeof Symbol&&"symbol"==typeof Symbol.iterator?function(t){return typeof t}:function(t){return t&&"function"==typeof Symbol&&t.constructor===Symbol&&t!==Symbol.prototype?"symbol":typeof t})(n)}function n(t,n){if(!(t instanceof n))throw new TypeError("Cannot call a class as a function")}function r(t,n){for(var r=0;r<n.length;r++){var e=n[r];e.enumerable=e.enumerable||!1,e.configurable=!0,"value"in e&&(e.writable=!0),Object.defineProperty(t,e.key,e)}}function e(t,n,e){return n&&r(t.prototype,n),e&&r(t,e),t}var i=1e-5,u=Math.abs;function o(t){return t}function a(t,n,r){var e=1-r;return 3*r*e*(t*e+n*r)+r*r*r}function l(){var t=arguments.length>0&&void 0!==arguments[0]?arguments[0]:0,n=arguments.length>1&&void 0!==arguments[1]?arguments[1]:0,r=arguments.length>2&&void 0!==arguments[2]?arguments[2]:1,e=arguments.length>3&&void 0!==arguments[3]?arguments[3]:1;return t<0||t>1||r<0||r>1?null:u(t-n)<=i&&u(r-e)<=i?o:function(o){if(o<=0)return t>0?o*n/t:0===n&&r>0?o*e/r:0;if(o>=1)return r<1?1+(o-1)*(e-1)/(r-1):1===r&&t<1?1+(o-1)*(n-1)/(t-1):1;for(var l,f=0,s=1;f<s;){var c=a(t,r,l=(f+s)/2);if(u(o-c)<i)break;c<o?f=l:s=l}return a(n,e,l)}}function f(){return 1}function s(t){return 1===t?1:0}function c(){var t=arguments.length>0&&void 0!==arguments[0]?arguments[0]:1,n=arguments.length>1&&void 0!==arguments[1]?arguments[1]:0;if(1===t){if(0===n)return s;if(1===n)return f}var r=1/t;return function(t){return t>=1?1:(t+=n*r)-t%r}}function v(t){var n=arguments.length>1&&void 0!==arguments[1]?arguments[1]:2;if(Number.isInteger(t))return t;var r=Math.pow(10,n);return Math.round(t*r)/r}var h=Math.PI/180;function y(t,n,r){return t>=.5?r:n}function d(t,n,r){return 0===t||n===r?n:t*(r-n)+n}function g(t,n,r){var e=d(t,n,r);return e<=0?0:e}function m(t,n,r){return 0===t?n:1===t?r:{x:d(t,n.x,r.x),y:d(t,n.y,r.y)}}function p(t,n,r){return 0===t?n:1===t?r:{x:g(t,n.x,r.x),y:g(t,n.y,r.y)}}function b(t,n,r){var e=function(t,n,r){return Math.round(d(t,n,r))}(t,n,r);return e<=0?0:e>=255?255:e}function w(t,n,r){return 0===t?n:1===t?r:{r:b(t,n.r,r.r),g:b(t,n.g,r.g),b:b(t,n.b,r.b),a:d(t,null==n.a?1:n.a,null==r.a?1:r.a)}}function A(t,n,r){if(0===t)return n;if(1===t)return r;var e=n.length;if(e!==r.length)return y(t,n,r);for(var i=[],u=0;u<e;u++)i.push(w(t,n[u],r[u]));return i}function x(t,n,r){var e=n.length;if(e!==r.length)return y(t,n,r);for(var i=new Array(e),u=0;u<e;u++)i[u]=d(t,n[u],r[u]);return i}function k(t,n){for(var r=[],e=0;e<t;e++)r.push(n);return r}function S(t,n){if(--n<=0)return t;var r=(t=Object.assign([],t)).length;do{for(var e=0;e<r;e++)t.push(t[e])}while(--n>0);return t}var _=6,M=/\.0+$/g;function I(t){return Number.isInteger(t)?t+"":t.toFixed(_).replace(M,"")}function E(t){var n=arguments.length>1&&void 0!==arguments[1]?arguments[1]:" ";return t&&t.length?t.map(I).join(n):""}function F(t){return I(t.x)+","+I(t.y)}function B(t){return t?null==t.a||t.a>=1?"rgb("+t.r+","+t.g+","+t.b+")":"rgba("+t.r+","+t.g+","+t.b+","+t.a+")":"transparent"}var j={f:null,i:p,u:function(t,n){return function(r){var e=n(r);t.setAttribute("rx",I(e.x)),t.setAttribute("ry",I(e.y))}}},q={f:null,i:function(t,n,r){return 0===t?n:1===t?r:{width:g(t,n.width,r.width),height:g(t,n.height,r.height)}},u:function(t,n){return function(r){var e=n(r);t.setAttribute("width",I(e.width)),t.setAttribute("height",I(e.height))}}},P=Math.sin,O=Math.cos,z=Math.acos,L=Math.asin,C=Math.tan,R=Math.atan2,T=Math.PI/180,V=180/Math.PI,D=Math.sqrt,N=function(){function t(){var r=arguments.length>0&&void 0!==arguments[0]?arguments[0]:1,e=arguments.length>1&&void 0!==arguments[1]?arguments[1]:0,i=arguments.length>2&&void 0!==arguments[2]?arguments[2]:0,u=arguments.length>3&&void 0!==arguments[3]?arguments[3]:1,o=arguments.length>4&&void 0!==arguments[4]?arguments[4]:0,a=arguments.length>5&&void 0!==arguments[5]?arguments[5]:0;n(this,t),this.m=[r,e,i,u,o,a],this.i=null,this.w=null,this.s=null}return e(t,[{key:"point",value:function(t,n){var r=this.m;return{x:r[0]*t+r[2]*n+r[4],y:r[1]*t+r[3]*n+r[5]}}},{key:"translateSelf",value:function(){var t=arguments.length>0&&void 0!==arguments[0]?arguments[0]:0,n=arguments.length>1&&void 0!==arguments[1]?arguments[1]:0;if(!t&&!n)return this;var r=this.m;return r[4]+=r[0]*t+r[2]*n,r[5]+=r[1]*t+r[3]*n,this.w=this.s=this.i=null,this}},{key:"rotateSelf",value:function(){var t=arguments.length>0&&void 0!==arguments[0]?arguments[0]:0;if(t%=360){var n=P(t*=T),r=O(t),e=this.m,i=e[0],u=e[1];e[0]=i*r+e[2]*n,e[1]=u*r+e[3]*n,e[2]=e[2]*r-i*n,e[3]=e[3]*r-u*n,this.w=this.s=this.i=null}return this}},{key:"scaleSelf",value:function(){var t=arguments.length>0&&void 0!==arguments[0]?arguments[0]:1,n=arguments.length>1&&void 0!==arguments[1]?arguments[1]:1;if(1!==t||1!==n){var r=this.m;r[0]*=t,r[1]*=t,r[2]*=n,r[3]*=n,this.w=this.s=this.i=null}return this}},{key:"skewSelf",value:function(t,n){if(n%=360,(t%=360)||n){var r=this.m,e=r[0],i=r[1],u=r[2],o=r[3];t&&(t=C(t*T),r[2]+=e*t,r[3]+=i*t),n&&(n=C(n*T),r[0]+=u*n,r[1]+=o*n),this.w=this.s=this.i=null}return this}},{key:"resetSelf",value:function(){var t=arguments.length>0&&void 0!==arguments[0]?arguments[0]:1,n=arguments.length>1&&void 0!==arguments[1]?arguments[1]:0,r=arguments.length>2&&void 0!==arguments[2]?arguments[2]:0,e=arguments.length>3&&void 0!==arguments[3]?arguments[3]:1,i=arguments.length>4&&void 0!==arguments[4]?arguments[4]:0,u=arguments.length>5&&void 0!==arguments[5]?arguments[5]:0,o=this.m;return o[0]=t,o[1]=n,o[2]=r,o[3]=e,o[4]=i,o[5]=u,this.w=this.s=this.i=null,this}},{key:"recomposeSelf",value:function(){var t=arguments.length>0&&void 0!==arguments[0]?arguments[0]:null,n=arguments.length>1&&void 0!==arguments[1]?arguments[1]:null,r=arguments.length>2&&void 0!==arguments[2]?arguments[2]:null,e=arguments.length>3&&void 0!==arguments[3]?arguments[3]:null,i=arguments.length>4&&void 0!==arguments[4]?arguments[4]:null;return this.isIdentity||this.resetSelf(),t&&(t.x||t.y)&&this.translateSelf(t.x,t.y),n&&this.rotateSelf(n),r&&(r.x&&this.skewSelf(r.x,0),r.y&&this.skewSelf(0,r.y)),!e||1===e.x&&1===e.y||this.scaleSelf(e.x,e.y),i&&(i.x||i.y)&&this.translateSelf(i.x,i.y),this}},{key:"decompose",value:function(){var t=arguments.length>0&&void 0!==arguments[0]?arguments[0]:0,n=arguments.length>1&&void 0!==arguments[1]?arguments[1]:0,r=this.m,e=r[0]*r[0]+r[1]*r[1],i=[[r[0],r[1]],[r[2],r[3]]],u=D(e);if(0===u)return{origin:{x:r[4],y:r[5]},translate:{x:t,y:n},scale:{x:0,y:0},skew:{x:0,y:0},rotate:0};i[0][0]/=u,i[0][1]/=u;var o=r[0]*r[3]-r[1]*r[2]<0;o&&(u=-u);var a=i[0][0]*i[1][0]+i[0][1]*i[1][1];i[1][0]-=i[0][0]*a,i[1][1]-=i[0][1]*a;var l=D(i[1][0]*i[1][0]+i[1][1]*i[1][1]);if(0===l)return{origin:{x:r[4],y:r[5]},translate:{x:t,y:n},scale:{x:u,y:0},skew:{x:0,y:0},rotate:0};i[1][0]/=l,i[1][1]/=l,a/=l;var f=0;return i[1][1]<0?(f=z(i[1][1])*V,i[0][1]<0&&(f=360-f)):f=L(i[0][1])*V,o&&(f=-f),a=R(a,D(i[0][0]*i[0][0]+i[0][1]*i[0][1]))*V,{origin:{x:r[4],y:r[5]},translate:{x:t,y:n},scale:{x:u,y:l},skew:{x:a,y:0},rotate:f}}},{key:"toString",value:function(){return null===this.s&&(this.s="matrix("+this.m.map($).join(" ")+")"),this.s}},{key:"determinant",get:function(){var t=this.m;return t[0]*t[3]-t[1]*t[2]}},{key:"isIdentity",get:function(){if(null===this.i){var t=this.m;this.i=1===t[0]&&0===t[1]&&0===t[2]&&1===t[3]&&0===t[4]&&0===t[5]}return this.i}}]),t}(),G=/\.0+$/;function $(t){return Number.isInteger(t)?t:t.toFixed(14).replace(G,"")}Object.freeze({M:2,L:2,Z:0,H:1,V:1,C:6,Q:4,T:2,S:4,A:7});function H(t,n,r){return t+(n-t)*r}function Q(t,n,r){var e=arguments.length>3&&void 0!==arguments[3]&&arguments[3],i={x:H(t.x,n.x,r),y:H(t.y,n.y,r)};return e&&(i.a=function(t,n){return Math.atan2(n.y-t.y,n.x-t.x)}(t,n)),i}function U(t,n,r,e){var i=1-e;return i*i*t+2*i*e*n+e*e*r}function Y(t,n,r,e){return 2*(1-e)*(n-t)+2*e*(r-n)}function Z(t,n,r,e){var i=arguments.length>4&&void 0!==arguments[4]&&arguments[4],u={x:U(t.x,n.x,r.x,e),y:U(t.y,n.y,r.y,e)};return i&&(u.a=function(t,n,r,e){return Math.atan2(Y(t.y,n.y,r.y,e),Y(t.x,n.x,r.x,e))}(t,n,r,e)),u}function J(t,n,r,e,i){var u=i*i;return i*u*(e-t+3*(n-r))+3*u*(t+r-2*n)+3*i*(n-t)+t}function K(t,n,r,e,i){var u=1-i;return 3*(u*u*(n-t)+2*u*i*(r-n)+i*i*(e-r))}function W(t,n,r,e,i){var u=arguments.length>5&&void 0!==arguments[5]&&arguments[5],o={x:J(t.x,n.x,r.x,e.x,i),y:J(t.y,n.y,r.y,e.y,i)};return u&&(o.a=function(t,n,r,e,i){return Math.atan2(K(t.y,n.y,r.y,e.y,i),K(t.x,n.x,r.x,e.x,i))}(t,n,r,e,i)),o}function X(t,n,r){var e,i=arguments.length>3&&void 0!==arguments[3]&&arguments[3];if(nt(n)){if(null!=(e=r).start&&!nt(e))return Z(n,r.start,r,t,i)}else if(nt(r)){if(n.end)return Z(n,n.end,r,t,i)}else{if(n.end)return r.start?W(n,n.end,r.start,r,t,i):Z(n,n.end,r,t,i);if(r.start)return Z(n,r.start,r,t,i)}return Q(n,r,t,i)}function tt(t,n,r){var e=X(t,n,r,!0);return e.a=function(t){return arguments.length>1&&void 0!==arguments[1]&&arguments[1]?t+Math.PI:t}(e.a)/h,e}function nt(t){return!t.type||"corner"===t.type}var rt=new N;var et={f:function(t){return t?t.join(" "):""},i:function(n,r,e){if(0===n)return r;if(1===n)return e;var i=r.length;if(i!==e.length)return y(n,r,e);for(var u,o=new Array(i),a=0;a<i;a++){if((u=t(r[a]))!==t(e[a]))return y(n,r,e);if("number"===u)o[a]=d(n,r[a],e[a]);else{if(r[a]!==e[a])return y(n,r,e);o[a]=r[a]}}return o}},it={f:null,i:x,u:function(t,n){return function(r){var e=n(r);t.setAttribute("x1",I(e[0])),t.setAttribute("y1",I(e[1])),t.setAttribute("x2",I(e[2])),t.setAttribute("y2",I(e[3]))}}},ut={f:I,i:d},ot={f:I,i:function(t,n,r){var e=d(t,n,r);return e<=0?0:e>=1?1:e}},at={f:E,i:function(t,n,r){var e,i,u,o=n.length,a=r.length;if(o!==a)if(0===o)n=k(o=a,0);else if(0===a)a=o,r=k(o,0);else{var l=(u=(e=o)*(i=a)/function(t,n){for(var r;n;)r=n,n=t%n,t=r;return t||1}(e,i))<0?-u:u;n=S(n,Math.floor(l/o)),r=S(r,Math.floor(l/a)),o=a=l}for(var f=[],s=0;s<o;s++)f.push(v(g(t,n[s],r[s]),6));return f}};function lt(t,n,r,e,i,u,o,a){return n=function(t,n,r){for(var e,i,u,o=t.length-1,a={},l=0;l<=o;l++)(e=t[l]).e&&(e.e=n(e.e)),e.v&&"g"===(i=e.v).t&&i.r&&(u=r.getElementById(i.r))&&(a[i.r]=u.querySelectorAll("stop"));return a}(t,e,a),function(e){var i,u=r(e,t,ft);return u?"c"===u.t?B(u.v):"g"===u.t?(n[u.r]&&function(t,n){for(var r=0,e=t.length;r<e;r++)t[r].setAttribute("stop-color",B(n[r]))}(n[u.r],u.v),(i=u.r)?"url(#"+i+")":"none"):"none":"none"}}function ft(t,n,r){if(0===t)return n;if(1===t)return r;if(n&&r){var e=n.t;if(e===r.t)switch(n.t){case"c":return{t:e,v:w(t,n.v,r.v)};case"g":if(n.r===r.r)return{t:e,v:A(t,n.v,r.v),r:n.r}}}return y(t,n,r)}var st={blur:p,brightness:g,contrast:g,"drop-shadow":function(t,n,r){return 0===t?n:1===t?r:{blur:p(t,n.blur,r.blur),offset:m(t,n.offset,r.offset),color:w(t,n.color,r.color)}},grayscale:g,"hue-rotate":d,invert:g,opacity:g,saturate:g,sepia:g};function ct(t,n,r){if(0===t)return n;if(1===t)return r;var e=n.length;if(e!==r.length)return y(t,n,r);for(var i,u=[],o=0;o<e;o++){if(n[o].type!==r[o].type)return n;if(!(i=st[n[o].type]))return y(t,n,r);u.push({type:n.type,value:i(t,n[o].value,r[o].value)})}return u}var vt={blur:function(t){return t?function(n){t.setAttribute("stdDeviation",F(n))}:null},brightness:function(t,n,r){return(t=yt(r,n))?function(n){n=I(n),t.map((function(t){return t.setAttribute("slope",n)}))}:null},contrast:function(t,n,r){return(t=yt(r,n))?function(n){var r=I((1-n)/2);n=I(n),t.map((function(t){t.setAttribute("slope",n),t.setAttribute("intercept",r)}))}:null},"drop-shadow":function(t,n,r){var e=r.getElementById(n+"-blur");if(!e)return null;var i=r.getElementById(n+"-offset");if(!i)return null;var u=r.getElementById(n+"-flood");return u?function(t){e.setAttribute("stdDeviation",F(t.blur)),i.setAttribute("dx",I(t.offset.x)),i.setAttribute("dy",I(t.offset.y)),u.setAttribute("flood-color",B(t.color))}:null},grayscale:function(t){return t?function(n){t.setAttribute("values",E(function(t){return[.2126+.7874*(t=1-t),.7152-.7152*t,.0722-.0722*t,0,0,.2126-.2126*t,.7152+.2848*t,.0722-.0722*t,0,0,.2126-.2126*t,.7152-.7152*t,.0722+.9278*t,0,0,0,0,0,1,0]}(n)))}:null},"hue-rotate":function(t){return t?function(n){return t.setAttribute("values",I(n))}:null},invert:function(t,n,r){return(t=yt(r,n))?function(n){n=I(n)+" "+I(1-n),t.map((function(t){return t.setAttribute("tableValues",n)}))}:null},opacity:function(t,n,r){return(t=r.getElementById(n+"-A"))?function(n){return t.setAttribute("tableValues","0 "+I(n))}:null},saturate:function(t){return t?function(n){return t.setAttribute("values",I(n))}:null},sepia:function(t){return t?function(n){return t.setAttribute("values",E(function(t){return[.393+.607*(t=1-t),.769-.769*t,.189-.189*t,0,0,.349-.349*t,.686+.314*t,.168-.168*t,0,0,.272-.272*t,.534-.534*t,.131+.869*t,0,0,0,0,0,1,0]}(n)))}:null}};var ht=["R","G","B"];function yt(t,n){var r=ht.map((function(r){return t.getElementById(n+"-"+r)||null}));return-1!==r.indexOf(null)?null:r}var dt={fill:lt,"fill-opacity":ot,stroke:lt,"stroke-opacity":ot,"stroke-width":ut,"stroke-dashoffset":{f:I,i:d},"stroke-dasharray":at,opacity:ot,transform:function(n,r,e,i){if(!(n=function(n,r){if(!n||"object"!==t(n))return null;var e=!1;for(var i in n)n.hasOwnProperty(i)&&(n[i]&&n[i].length?(n[i].forEach((function(t){t.e&&(t.e=r(t.e))})),e=!0):delete n[i]);return e?n:null}(n,i)))return null;var u=function(t,i,u){var o=arguments.length>3&&void 0!==arguments[3]?arguments[3]:null;return n[t]?e(i,n[t],u):r&&r[t]?r[t]:o};return r&&r.a&&n.o?function(t){var r=e(t,n.o,tt);return rt.recomposeSelf(r,u("r",t,d,0)+r.a,u("k",t,m),u("s",t,m),u("t",t,m)).toString()}:function(t){return rt.recomposeSelf(u("o",t,X,null),u("r",t,d,0),u("k",t,m),u("s",t,m),u("t",t,m)).toString()}},"#filter":function(t,n,r,e,i,u,o,a){if(!n.items||!t||!t.length)return null;var l=function(t,n){var r=(t=t.map((function(t){return t&&vt[t[0]]?(n.getElementById(t[1]),vt[t[0]](n.getElementById(t[1]),t[1],n)):null}))).length;return function(n){for(var e=0;e<r;e++)t[e]&&t[e](n[e].value)}}(n.items,a);return l?(t=function(t,n){return t.map((function(t){return t.e=n(t.e),t}))}(t,e),function(n){l(r(n,t,ct))}):null},"#line":it,points:{f:E,i:x},d:et,r:ut,"#size":q,"#radius":j,_:function(t,n){if(Array.isArray(t))for(var r=0;r<t.length;r++)this[t[r]]=n;else this[t]=n}},gt=function(){function t(r){n(this,t),this.list=r,this.length=r.length}return e(t,[{key:"setAttribute",value:function(t,n){for(var r=this.list,e=0;e<this.length;e++)r[e].setAttribute(t,n)}},{key:"removeAttribute",value:function(t){for(var n=this.list,r=0;r<this.length;r++)n[r].removeAttribute(t)}},{key:"style",value:function(t,n){for(var r=this.list,e=0;e<this.length;e++)r[e].style[t]=n}}]),t}(),mt=/-./g,pt=function(t,n){return n.toUpperCase()};function bt(t){return"function"==typeof t?t:y}function wt(t){return t?"function"==typeof t?t:Array.isArray(t)?function(t){var n=arguments.length>1&&void 0!==arguments[1]?arguments[1]:o;if(!Array.isArray(t))return n;switch(t.length){case 1:return c(t[0])||n;case 2:return c(t[0],t[1])||n;case 4:return l(t[0],t[1],t[2],t[3])||n}return n}(t,null):function(t,n){var r=arguments.length>2&&void 0!==arguments[2]?arguments[2]:o;switch(t){case"linear":return o;case"steps":return c(n.steps||1,n.jump||0)||r;case"bezier":case"cubic-bezier":return l(n.x1||0,n.y1||0,n.x2||0,n.y2||0)||r}return r}(t.type,t.value,null):null}function At(t,n,r){var e=arguments.length>3&&void 0!==arguments[3]&&arguments[3],i=n.length-1;if(t<=n[0].t)return e?[0,0,n[0].v]:n[0].v;if(t>=n[i].t)return e?[i,1,n[i].v]:n[i].v;var u,o=n[0],a=null;for(u=1;u<=i;u++){if(!(t>n[u].t)){a=n[u];break}o=n[u]}return null==a?e?[i,1,n[i].v]:n[i].v:o.t===a.t?e?[u,1,a.v]:a.v:(t=(t-o.t)/(a.t-o.t),o.e&&(t=o.e(t)),e?[u,t,r(t,o.v,a.v)]:r(t,o.v,a.v))}function xt(t,n){var r=arguments.length>2&&void 0!==arguments[2]?arguments[2]:null;return t&&t.length?"function"!=typeof n?null:("function"!=typeof r&&(r=null),function(e){var i=At(e,t,n);return null!=i&&r&&(i=r(i)),i}):null}function kt(t,n){return t.t-n.t}function St(n,r,e,i,u){var o,a="@"===e[0],l="#"===e[0],f=dt[e],s=y;switch(a?(o=e.substr(1),e=o.replace(mt,pt)):l&&(e=e.substr(1)),t(f)){case"function":if(s=f(i,u,At,wt,e,a,r,n),l)return s;break;case"string":s=xt(i,bt(f));break;case"object":if((s=xt(i,bt(f.i),f.f))&&"function"==typeof f.u)return f.u(r,s,e,a,n)}return s?function(t,n,r){if(arguments.length>3&&void 0!==arguments[3]&&arguments[3])return t instanceof gt?function(e){return t.style(n,r(e))}:function(e){return t.style[n]=r(e)};if(Array.isArray(n)){var e=n.length;return function(i){var u=r(i);if(null==u)for(var o=0;o<e;o++)t[o].removeAttribute(n);else for(var a=0;a<e;a++)t[a].setAttribute(n,u)}}return function(e){var i=r(e);null==i?t.removeAttribute(n):t.setAttribute(n,i)}}(r,e,s,a):null}function _t(n,r,e,i){if(!i||"object"!==t(i))return null;var u=null,o=null;return Array.isArray(i)?o=function(t){if(!t||!t.length)return null;for(var n=0;n<t.length;n++)t[n].e&&(t[n].e=wt(t[n].e));return t.sort(kt)}(i):(o=i.keys,u=i.data||null),o?St(n,r,e,o,u):null}function Mt(t,n,r){if(!r)return null;var e=[];for(var i in r)if(r.hasOwnProperty(i)){var u=_t(t,n,i,r[i]);u&&e.push(u)}return e.length?e:null}function It(t,n){if(!n.duration||n.duration<0)return null;var r=function(t,n){if(!n)return null;var r=[];if(Array.isArray(n))for(var e=n.length,i=0;i<e;i++){var u=n[i];if(2===u.length){var o=null;if("string"==typeof u[0])o=t.getElementById(u[0]);else if(Array.isArray(u[0])){o=[];for(var a=0;a<u[0].length;a++)if("string"==typeof u[0][a]){var l=t.getElementById(u[0][a]);l&&o.push(l)}o=o.length?1===o.length?o[0]:new gt(o):null}if(o){var f=Mt(t,o,u[1]);f&&(r=r.concat(f))}}}else for(var s in n)if(n.hasOwnProperty(s)){var c=t.getElementById(s);if(c){var v=Mt(t,c,n[s]);v&&(r=r.concat(v))}}return r.length?r:null}(t,n.elements);return r?function(t,n){var r=arguments.length>2&&void 0!==arguments[2]?arguments[2]:1/0,e=arguments.length>3&&void 0!==arguments[3]?arguments[3]:1,i=arguments.length>4&&void 0!==arguments[4]&&arguments[4],u=arguments.length>5&&void 0!==arguments[5]?arguments[5]:1,o=t.length,a=e>0?n:0;i&&r%2==0&&(a=n-a);var l=null;return function(f,s){var c=f%n,v=1+(f-c)/n;s*=e,i&&v%2==0&&(s=-s);var h=!1;if(v>r)c=a,h=!0,-1===u&&(c=e>0?0:n);else if(s<0&&(c=n-c),c===l)return!1;l=c;for(var y=0;y<o;y++)t[y](c);return h}}(r,n.duration,n.iterations||1/0,n.direction||1,!!n.alternate,n.fill||1):null}var Et=function(){function t(r){var e=arguments.length>1&&void 0!==arguments[1]?arguments[1]:{};n(this,t),this._id=0,this._running=!1,this._animations=r,this.direction=e.direction||1,this.speed=e.speed||1,this.fps=e.fps||100,this.offset=e.offset||0}return e(t,[{key:"_start",value:function(){var t=this,n=arguments.length>0&&void 0!==arguments[0]?arguments[0]:0,r=-1/0,e=null,i={},u=function u(o){t._running=!0,null==e&&(e=o);var a=Math.round((o-e+n)*t.speed),l=t.fps?1e3/t.fps:0;if(a>r+l){t.offset=a,r=a;for(var f=t._animations,s=f.length,c=0,v=0;v<s;v++)i[v]?c++:(i[v]=f[v](a,t.direction),i[v]&&c++);if(c===s)return void t._stop()}t._id=window.requestAnimationFrame(u)};this._id=window.requestAnimationFrame(u)}},{key:"_stop",value:function(){this._id&&window.cancelAnimationFrame(this._id),this._running=!1}},{key:"play",value:function(){this._running||this._start(this.offset)}},{key:"stop",value:function(){this._stop(),this.offset=0;var t=this.direction,n=this._animations;requestAnimationFrame((function(){for(var r=0;r<n.length;r++)n[r](0,t)}))}},{key:"restart",value:function(){this._stop(),this.offset=0,this._start()}},{key:"pause",value:function(){this._stop()}},{key:"reverse",value:function(){this.direction=-this.direction}}],[{key:"build",value:function(n){if(!(n=function(t){if(!t||!t.root||!Array.isArray(t.animations))return null;var n=window.document.getElementById(t.root);if(!n)return null;var r=t.animations.map((function(t){return It(n,t)})).filter((function(t){return!!t}));return r.length?{element:n,animations:r,options:t.options||void 0}:null}(n)))return null;var r=n.element,e=n.options||{},i=new t(n.animations,n.options);return function(t,n,r){var e=arguments.length>3&&void 0!==arguments[3]?arguments[3]:null;if("click"===r){return void n.addEventListener("click",(function r(){n.removeEventListener("click",r),t.play()}))}if("hover"===r)return n.addEventListener("mouseenter",(function(){return t.play()})),void n.addEventListener("mouseleave","freeze"===e?function(){return t.pause()}:function(){return t.stop()});t.play()}(i,r,e.start,e.hover),i}}]),t}();return function(){for(var t=0,n=["ms","moz","webkit","o"],r=0;r<n.length&&!window.requestAnimationFrame;++r)window.requestAnimationFrame=window[n[r]+"RequestAnimationFrame"],window.cancelAnimationFrame=window[n[r]+"CancelAnimationFrame"]||window[n[r]+"CancelRequestAnimationFrame"];window.requestAnimationFrame||(window.requestAnimationFrame=function(n){var r=Date.now(),e=Math.max(0,16-(r-t)),i=window.setTimeout((function(){n(r+e)}),e);return t=r+e,i},window.cancelAnimationFrame=window.clearTimeout)}(),Et}));
__SVGATOR_PLAYER__.build({"root":"edsuuup9zhv81","animations":[{"duration":7000,"direction":1,"iterations":1,"fill":1,"alternate":false,"elements":{"edsuuup9zhv82":{"transform":{"data":{"o":{"x":599.0862230200005,"y":325.85083391,"type":"corner"},"t":{"x":-483.74942243,"y":-347.50570791}},"keys":{"s":[{"t":0,"v":{"x":0.1,"y":0.1}},{"t":1900,"v":{"x":1,"y":1}}]}}},"edsuuup9zhv84":{"stroke-dashoffset":[{"t":2000,"v":20.28},{"t":2200,"v":0}]},"edsuuup9zhv85":{"stroke-dashoffset":[{"t":2600,"v":98},{"t":2800,"v":0}]},"edsuuup9zhv86":{"stroke-dashoffset":[{"t":4800,"v":12},{"t":5000,"v":0}]},"edsuuup9zhv87":{"stroke-dashoffset":[{"t":1300,"v":103},{"t":1500,"v":0}]},"edsuuup9zhv88":{"stroke-dashoffset":[{"t":3600,"v":74},{"t":3800,"v":0}]},"edsuuup9zhv89":{"stroke-dashoffset":[{"t":1500,"v":73.15},{"t":1700,"v":0}]},"edsuuup9zhv810":{"stroke-dashoffset":[{"t":3800,"v":27},{"t":4000,"v":0}]},"edsuuup9zhv811":{"stroke-dashoffset":[{"t":1700,"v":74.1},{"t":1900,"v":1}]},"edsuuup9zhv812":{"stroke-dashoffset":[{"t":2200,"v":76},{"t":2380,"v":0}]},"edsuuup9zhv813":{"stroke-dashoffset":[{"t":2800,"v":76},{"t":3000,"v":0}]},"edsuuup9zhv814":{"stroke-dashoffset":[{"t":3000,"v":84},{"t":3200,"v":0}]},"edsuuup9zhv815":{"stroke-dashoffset":[{"t":3200,"v":74},{"t":3400,"v":0}]},"edsuuup9zhv816":{"stroke-dashoffset":[{"t":4200,"v":84},{"t":4400,"v":0}]},"edsuuup9zhv817":{"stroke-dashoffset":[{"t":4400,"v":78.4},{"t":4600,"v":0}]},"edsuuup9zhv818":{"stroke-dashoffset":[{"t":4600,"v":38},{"t":4800,"v":0}]},"edsuuup9zhv819":{"stroke-dashoffset":[{"t":5000,"v":74},{"t":5200,"v":0}]},"edsuuup9zhv820":{"stroke-dashoffset":[{"t":5600,"v":74.3},{"t":5800,"v":1}]},"edsuuup9zhv821":{"stroke-dashoffset":[{"t":5400,"v":53.6},{"t":5600,"v":0}]},"edsuuup9zhv822":{"stroke-dashoffset":[{"t":1860,"v":22},{"t":2100,"v":0}]},"edsuuup9zhv823":{"stroke-dashoffset":[{"t":2400,"v":30.18},{"t":2600,"v":0}]},"edsuuup9zhv824":{"stroke-dashoffset":[{"t":3400,"v":21},{"t":3600,"v":0}]},"edsuuup9zhv825":{"stroke-dashoffset":[{"t":5200,"v":21},{"t":5400,"v":0}]},"edsuuup9zhv826":{"stroke-dashoffset":[{"t":5800,"v":21.2},{"t":6100,"v":0}]},"edsuuup9zhv827":{"stroke-dashoffset":[{"t":4000,"v":31},{"t":4200,"v":0}]},"edsuuup9zhv828":{"stroke-dashoffset":[{"t":2900,"v":20.27},{"t":3100,"v":0}],"stroke-dasharray":[{"t":2900,"v":[20.27]},{"t":3100,"v":[0]}]}}}],"options":{"start":"load","hover":"freeze"}})]]></script></svg>